<svg width="14" height="14" viewBox="0 0 14 14" fill="none" xmlns="http://www.w3.org/2000/svg">
<path d="M0.330531 4.86962C0.116101 5.5414 -2.73389e-05 6.25707 4.82766e-09 6.99997C-2.73389e-05 7.7429 0.116129 8.45862 0.330558 9.1304L6.99999 9.43479L13.6694 9.13045C13.8838 8.45864 14 7.7429 14 7.00002C14 6.25709 13.8838 5.5414 13.6694 4.86959L6.99999 4.56526L0.330531 4.86962Z" fill="#F0F0F0"/>
<path d="M13.671 4.86964L7.00154 4.56531L0.332086 4.86964C0.268539 5.06881 0.213824 5.2719 0.167969 5.47834H13.835C13.7892 5.27187 13.7345 5.06876 13.671 4.86964Z" fill="#D80027"/>
<path d="M0.167908 8.52167C0.213708 8.72812 0.268423 8.93117 0.33197 9.13034L0.332626 9.13037L7.00137 9.4347L13.6708 9.13037C13.7343 8.9312 13.7891 8.72812 13.8349 8.52167H0.167908Z" fill="#D80027"/>
<path d="M7.00143 13.9999C10.1245 13.9999 12.7695 11.9545 13.6709 9.13037H0.332031C1.23342 11.9545 3.87843 13.9999 7.00143 13.9999Z" fill="#6DA544"/>
<path d="M7.00146 2.7415e-10C3.87843 2.7344e-05 1.23347 2.04542 0.332031 4.86956L13.6709 4.86958C12.7695 2.04539 10.1245 -2.73434e-05 7.00146 2.7415e-10Z" fill="#338AF3"/>
</svg>
